<svg width="15" height="17" viewBox="0 0 15 17" fill="none" xmlns="http://www.w3.org/2000/svg">
<path fill-rule="evenodd" clip-rule="evenodd" d="M1.95833 0.583252C1.52111 0.583252 1.16667 0.937697 1.16667 1.37492V15.6249H0.770833C0.552223 15.6249 0.375 15.8022 0.375 16.0208C0.375 16.2393 0.552223 16.4166 0.770833 16.4166H3.9375V14.0416C3.9375 13.6043 4.29194 13.2499 4.72917 13.2499H6.3125C6.74974 13.2499 7.10417 13.6043 7.10417 14.0416V16.4166H14.2292C14.4477 16.4166 14.625 16.2393 14.625 16.0208C14.625 15.8022 14.4477 15.6249 14.2292 15.6249H13.8333V3.74992C13.8333 3.3127 13.4789 2.95825 13.0417 2.95825H9.875V1.37492C9.875 0.937697 9.52057 0.583252 9.08333 0.583252H1.95833ZM3.9375 2.95825C3.71889 2.95825 3.54167 3.13547 3.54167 3.35409V4.14575C3.54167 4.36436 3.71889 4.54159 3.9375 4.54159H4.72917C4.94778 4.54159 5.125 4.36436 5.125 4.14575V3.35409C5.125 3.13547 4.94778 2.95825 4.72917 2.95825H3.9375ZM3.54167 5.72909C3.54167 5.51047 3.71889 5.33325 3.9375 5.33325H4.72917C4.94778 5.33325 5.125 5.51047 5.125 5.72909V6.52075C5.125 6.73936 4.94778 6.91659 4.72917 6.91659H3.9375C3.71889 6.91659 3.54167 6.73936 3.54167 6.52075V5.72909ZM3.9375 7.70825C3.71889 7.70825 3.54167 7.88551 3.54167 8.10409V8.89575C3.54167 9.11433 3.71889 9.29159 3.9375 9.29159H4.72917C4.94778 9.29159 5.125 9.11433 5.125 8.89575V8.10409C5.125 7.88551 4.94778 7.70825 4.72917 7.70825H3.9375ZM3.54167 10.4791C3.54167 10.2605 3.71889 10.0833 3.9375 10.0833H4.72917C4.94778 10.0833 5.125 10.2605 5.125 10.4791V11.2708C5.125 11.4893 4.94778 11.6666 4.72917 11.6666H3.9375C3.71889 11.6666 3.54167 11.4893 3.54167 11.2708V10.4791ZM6.3125 2.95825C6.09392 2.95825 5.91667 3.13547 5.91667 3.35409V4.14575C5.91667 4.36436 6.09392 4.54159 6.3125 4.54159H7.10417C7.32275 4.54159 7.5 4.36436 7.5 4.14575V3.35409C7.5 3.13547 7.32275 2.95825 7.10417 2.95825H6.3125ZM10.6667 5.72909C10.6667 5.51047 10.8439 5.33325 11.0625 5.33325H11.8542C12.0727 5.33325 12.25 5.51047 12.25 5.72909V6.52075C12.25 6.73936 12.0727 6.91659 11.8542 6.91659H11.0625C10.8439 6.91659 10.6667 6.73936 10.6667 6.52075V5.72909ZM11.0625 7.70825C10.8439 7.70825 10.6667 7.88551 10.6667 8.10409V8.89575C10.6667 9.11433 10.8439 9.29159 11.0625 9.29159H11.8542C12.0727 9.29159 12.25 9.11433 12.25 8.89575V8.10409C12.25 7.88551 12.0727 7.70825 11.8542 7.70825H11.0625ZM10.6667 10.4791C10.6667 10.2605 10.8439 10.0833 11.0625 10.0833H11.8542C12.0727 10.0833 12.25 10.2605 12.25 10.4791V11.2708C12.25 11.4893 12.0727 11.6666 11.8542 11.6666H11.0625C10.8439 11.6666 10.6667 11.4893 10.6667 11.2708V10.4791ZM11.0625 12.4583C10.8439 12.4583 10.6667 12.6355 10.6667 12.8541V13.6458C10.6667 13.8643 10.8439 14.0416 11.0625 14.0416H11.8542C12.0727 14.0416 12.25 13.8643 12.25 13.6458V12.8541C12.25 12.6355 12.0727 12.4583 11.8542 12.4583H11.0625ZM5.91667 5.72909C5.91667 5.51047 6.09392 5.33325 6.3125 5.33325H7.10417C7.32275 5.33325 7.5 5.51047 7.5 5.72909V6.52075C7.5 6.73936 7.32275 6.91659 7.10417 6.91659H6.3125C6.09392 6.91659 5.91667 6.73936 5.91667 6.52075V5.72909ZM6.3125 7.70825C6.09392 7.70825 5.91667 7.88551 5.91667 8.10409V8.89575C5.91667 9.11433 6.09392 9.29159 6.3125 9.29159H7.10417C7.32275 9.29159 7.5 9.11433 7.5 8.89575V8.10409C7.5 7.88551 7.32275 7.70825 7.10417 7.70825H6.3125ZM5.91667 10.4791C5.91667 10.2605 6.09392 10.0833 6.3125 10.0833H7.10417C7.32275 10.0833 7.5 10.2605 7.5 10.4791V11.2708C7.5 11.4893 7.32275 11.6666 7.10417 11.6666H6.3125C6.09392 11.6666 5.91667 11.4893 5.91667 11.2708V10.4791Z" fill="#EA3D3D"/>
<path d="M6.31258 16.4165V14.0415H4.72925V16.4165H6.31258Z" fill="#EA3D3D"/>
</svg>
