<svg width="13" height="13" viewBox="0 0 13 13" fill="none" xmlns="http://www.w3.org/2000/svg">
<g clip-path="url(#clip0_265_6180)">
<path d="M1.61284 12.408C1.49615 12.583 1.54345 12.8194 1.71847 12.9361C1.78342 12.9794 1.8568 13.0001 1.92939 13.0001C2.05246 13.0001 2.17324 12.9405 2.24662 12.8305L2.53689 12.3951C2.30192 12.2919 2.07805 12.1681 1.86787 12.0254L1.61284 12.408Z" fill="#11499B"/>
<path d="M11.1322 12.0254C10.922 12.1681 10.6981 12.2919 10.4631 12.3951L10.7534 12.8305C10.8268 12.9405 10.9475 13.0001 11.0706 13.0001C11.1432 13.0001 11.2166 12.9794 11.2816 12.9361C11.4566 12.8194 11.5039 12.583 11.3872 12.408L11.1322 12.0254Z" fill="#11499B"/>
<path d="M0.787109 7.36694V8.5567C0.787109 10.4468 2.32479 11.9844 4.21484 11.9844H8.78516C10.6752 11.9844 12.2129 10.4468 12.2129 8.5567V8.33494H5.91962C4.14906 8.33494 2.42559 8.00938 0.787109 7.36694Z" fill="#11499B"/>
<path d="M2.05664 4.48878V1.39648C2.05664 1.04647 2.3414 0.761719 2.69141 0.761719H3.19922C3.54923 0.761719 3.83398 1.04647 3.83398 1.39648V1.57719C3.24523 1.74682 2.81836 2.29938 2.81836 2.94112V3.04688C2.81836 3.25721 2.98888 3.42773 3.19922 3.42773H5.23047C5.4408 3.42773 5.61133 3.25721 5.61133 3.04688V2.91992C5.61133 2.28193 5.18113 1.74281 4.5957 1.57658V1.39648C4.5957 0.626463 3.96924 0 3.19922 0H2.69141C1.92138 0 1.29492 0.626463 1.29492 1.39648V4.18295C1.35489 4.20139 1.41411 4.22304 1.47222 4.24882C1.66542 4.33469 1.86029 4.41454 2.05664 4.48878Z" fill="#11499B"/>
<path d="M12.1653 5.9546H5.91968C4.27023 5.9546 2.67029 5.615 1.16364 4.94533C0.754492 4.76409 0.276869 4.94771 0.0953512 5.35604C-0.0861664 5.7644 0.0977125 6.24281 0.50607 6.42433C2.22113 7.18676 4.04235 7.57323 5.91971 7.57323H12.1653C12.6124 7.57323 12.9746 7.21098 12.9746 6.7639C12.9746 6.31683 12.6123 5.9546 12.1653 5.9546Z" fill="#11499B"/>
</g>
<defs>
<clipPath id="clip0_265_6180">
<rect width="13" height="13" fill="white"/>
</clipPath>
</defs>
</svg>
