<svg width="13" height="10" viewBox="0 0 13 10" fill="none" xmlns="http://www.w3.org/2000/svg">
<path d="M11.6071 4.19327C11.3144 4.06554 10.9982 3.99973 10.6786 4H2.32143C2.0018 3.99969 1.68559 4.06541 1.39286 4.19298C0.979121 4.37284 0.627057 4.66863 0.379697 5.04418C0.132337 5.41974 0.000395353 5.8588 0 6.30769V9.53846C0 9.66087 0.0489157 9.77826 0.135986 9.86482C0.223057 9.95137 0.341149 10 0.464286 10C0.587422 10 0.705515 9.95137 0.792585 9.86482C0.879656 9.77826 0.928571 9.66087 0.928571 9.53846V9.30769C0.929324 9.24672 0.954024 9.18846 0.997397 9.14534C1.04077 9.10222 1.09938 9.07767 1.16071 9.07692H11.8393C11.9006 9.07767 11.9592 9.10222 12.0026 9.14534C12.046 9.18846 12.0707 9.24672 12.0714 9.30769V9.53846C12.0714 9.66087 12.1203 9.77826 12.2074 9.86482C12.2945 9.95137 12.4126 10 12.5357 10C12.6588 10 12.7769 9.95137 12.864 9.86482C12.9511 9.77826 13 9.66087 13 9.53846V6.30769C12.9995 5.85885 12.8676 5.41985 12.6202 5.04435C12.3729 4.66885 12.0208 4.37311 11.6071 4.19327Z" fill="#11499B"/>
<path d="M9.40909 0H2.59091C2.16897 0 1.76432 0.134083 1.46597 0.372753C1.16761 0.611423 1 0.935129 1 1.27266V2.90893C1.00001 2.92302 1.00412 2.93691 1.01199 2.94951C1.01986 2.96211 1.03129 2.97308 1.04537 2.98154C1.05945 2.99 1.07579 2.99573 1.09311 2.99828C1.11043 3.00082 1.12825 3.00011 1.14517 2.9962C1.39331 2.93814 1.65055 2.90876 1.90909 2.90893H2.02926C2.05731 2.90908 2.08443 2.90092 2.10541 2.88602C2.12639 2.87113 2.13974 2.85055 2.1429 2.82826C2.16769 2.65058 2.27343 2.48644 2.43991 2.36717C2.6064 2.24791 2.82197 2.18188 3.04545 2.1817H4.63636C4.85999 2.18171 5.07577 2.24767 5.24244 2.36695C5.40911 2.48623 5.51496 2.65047 5.53977 2.82826C5.54293 2.85055 5.55628 2.87113 5.57726 2.88602C5.59824 2.90092 5.62536 2.90908 5.65341 2.90893H6.3483C6.37634 2.90908 6.40347 2.90092 6.42445 2.88602C6.44543 2.87113 6.45878 2.85055 6.46193 2.82826C6.48671 2.6507 6.59232 2.48665 6.75863 2.3674C6.92494 2.24815 7.1403 2.18205 7.36364 2.1817H8.95455C9.17818 2.18171 9.39396 2.24767 9.56062 2.36695C9.72729 2.48623 9.83315 2.65047 9.85795 2.82826C9.86111 2.85055 9.87446 2.87113 9.89544 2.88602C9.91642 2.90092 9.94354 2.90908 9.97159 2.90893H10.0909C10.3495 2.90883 10.6067 2.9383 10.8548 2.99643C10.8718 3.00034 10.8896 3.00105 10.907 2.99849C10.9243 2.99594 10.9407 2.99019 10.9547 2.9817C10.9688 2.97321 10.9802 2.96222 10.9881 2.94959C10.996 2.93696 11 2.92304 11 2.90893V1.27266C11 0.935129 10.8324 0.611423 10.534 0.372753C10.2357 0.134083 9.83103 0 9.40909 0Z" fill="#11499B"/>
</svg>
