<svg width="19" height="19" viewBox="0 0 19 19" fill="none" xmlns="http://www.w3.org/2000/svg">
<path d="M18.6811 8.64916L15.8015 5.76962V2.44326C15.8015 1.84181 15.3141 1.35438 14.7118 1.35438C14.1109 1.35438 13.6235 1.84181 13.6235 2.44326V3.59159L11.4794 1.44746C10.4194 0.387999 8.57632 0.389878 7.5187 1.44938L0.318771 8.64916C-0.106257 9.07503 -0.106257 9.76412 0.318771 10.1893C0.743991 10.6151 1.43442 10.6151 1.85949 10.1893L9.05873 2.98937C9.29326 2.75607 9.70663 2.75607 9.93993 2.98868L17.1404 10.1893C17.3539 10.4022 17.6323 10.5081 17.9106 10.5081C18.1894 10.5081 18.4683 10.4021 18.6811 10.1893C19.1063 9.76416 19.1063 9.07507 18.6811 8.64916Z" fill="#6528F7"/>
<path d="M9.87827 5.05621C9.66909 4.84715 9.33039 4.84715 9.12183 5.05621L2.78875 11.3874C2.68877 11.4874 2.63208 11.6238 2.63208 11.7662V16.384C2.63208 17.4675 3.51067 18.3461 4.59422 18.3461H7.72973V13.4902H11.2697V18.3461H14.4052C15.4887 18.3461 16.3673 17.4675 16.3673 16.384V11.7662C16.3673 11.6238 16.3111 11.4874 16.2107 11.3874L9.87827 5.05621Z" fill="#6528F7"/>
</svg>
